PathFileType	4	(X/Y/Z)	G:\Shared drives\HPL_Drive\Pi-Spi Study\20230118_AMCsubject1\Trimmed_left_flex_18001_rotated.trc
DataRate	CameraRate	NumFrames	NumMarkers	Units	OrigDataRate	OrigDataStartFrame	OrigNumFrames
200.00	200.00	       11	35	mm	200.00	1	       200
Frame#	Time	C7			Sternum			r_AMC1			r_AMC2			r_AMC3			l_AMC1			l_AMC2			l_AMC3			PX			T8			r_humerous			r_elbow_medial			r_elbow_lateral			r_forearm			r_wrist_radius			r_wrist_ulna			r_MCP_1			r_MCP_3			l_humerous			l_elbow_medial			l_elbow_lateral			l_forearm			l_wrist_radius			l_wrist_ulna			l_MCP_1			l_MCP_3			r_ASIS			r_PSIS			l_ASIS			l_PSIS			r_IC			l_IC			TS			AI			AA			
		X1	Y1	Z1	X2	Y2	Z2	X3	Y3	Z3	X4	Y4	Z4	X5	Y5	Z5	X6	Y6	Z6	X7	Y7	Z7	X8	Y8	Z8	X9	Y9	Z9	X10	Y10	Z10	X11	Y11	Z11	X12	Y12	Z12	X13	Y13	Z13	X14	Y14	Z14	X15	Y15	Z15	X16	Y16	Z16	X17	Y17	Z17	X18	Y18	Z18	X19	Y19	Z19	X20	Y20	Z20	X21	Y21	Z21	X22	Y22	Z22	X23	Y23	Z23	X24	Y24	Z24	X25	Y25	Z25	X26	Y26	Z26	X27	Y27	Z27	X28	Y28	Z28	X29	Y29	Z29	X30	Y30	Z30	X31	Y31	Z31	X32	Y32	Z32	X33	Y33	Z33	X34	Y34	Z34	X35	Y35	Z35	

1	0	197.3379	1368.8363	-236.3147	333.6402	1325.5087	-206.1196	179.8136	1318.6195	-79.452	209.8607	1322.1309	-38.9182	230.6095	1358.4763	-57.4114	204.068	1342.0712	-360.124	238.9668	1377.0319	-373.9038	227.0534	1397.723	-326.9516	407.4439	1134.8071	-200.0917	176.1878	1190.3735	-241.1926	294.1628	1142.5122	-13.3307	233.8945	997.6671	-43.9807	245.2098	1009.0696	20.9368	303.1775	856.3722	47.9238	355.4647	794.7677	31.5533	307.6025	786.3285	48.4457	379.6739	713.2833	46.4006	330.8564	708.5453	59.7234	317.5275	1476.681	-353.0014	409.0024	1565.521	-430.6501	363.5584	1590.7954	-438.7266	385.5005	1750.2147	-439.1702	395.7769	1823.3475	-421.4822	431.906	1818.9476	-445.4984	399.3684	1898.0073	-428.9906	438.594	1895.2352	-447.3337	373.1652	907.1835	-79.7228	185.7399	929.0615	-165.3418	374.9517	894.5605	-337.8843	187.1957	922.8607	-267.543	292.1896	971.1404	-53.6706	290.434	941.3231	-377.7169	140.7765	1291.4233	-336.0656	169.2732	1200.0071	-368.7044	199.9578	1354.0023	-444.5154
2	0.005	197.2875	1368.8182	-236.295	333.5927	1325.5024	-206.0836	179.7793	1318.5944	-79.4223	209.7771	1322.1489	-38.9539	230.548	1358.4639	-57.4292	204.078	1342.0753	-360.1294	238.9218	1377.0497	-373.8812	227.003	1397.738	-326.9507	407.3872	1134.7853	-200.0565	176.1585	1190.3872	-241.1956	294.1475	1142.4745	-13.3217	233.83	997.6506	-43.9683	245.1981	1009.1245	20.9814	303.3593	856.4274	48.0495	355.3813	794.7473	31.5853	307.5324	786.2852	48.4473	379.5879	713.1916	46.422	330.8666	708.417	59.751	317.5294	1476.6503	-352.9891	408.9931	1565.4963	-430.6351	363.5086	1590.8093	-438.7339	385.4395	1750.2213	-439.1593	395.6904	1823.3724	-421.5073	431.8397	1819.0029	-445.474	399.2715	1898.0291	-428.9813	438.5244	1895.2444	-447.3389	373.1457	907.1581	-79.7217	185.7208	929.0627	-165.3407	374.9374	894.5654	-337.8611	187.179	922.8723	-267.5211	292.16	971.0798	-53.669	290.4567	941.3343	-377.7272	140.7382	1291.3981	-336.0337	169.1632	1200.0251	-368.853	199.9184	1353.9867	-444.5194
3	0.01	197.2518	1368.8098	-236.2791	333.5204	1325.5044	-206.0741	179.7378	1318.5859	-79.4251	209.7664	1322.1155	-38.8777	230.4915	1358.3748	-57.3	204.0195	1342.0605	-360.1099	238.9111	1377.0135	-373.8803	226.9474	1397.7269	-326.9513	407.3645	1134.7606	-200.056	176.1303	1190.3662	-241.1812	294.0877	1142.4778	-13.3148	233.77	997.6415	-43.9492	245.1135	1009.0785	20.9804	303.3024	856.3899	48.0777	355.2949	794.6885	31.6269	307.5639	786.1573	48.4062	379.4987	713.1559	46.4338	330.6378	708.5115	59.7733	317.4481	1476.713	-352.9845	408.939	1565.4819	-430.6098	363.4487	1590.7965	-438.7061	385.4183	1750.2222	-439.1714	395.639	1823.3834	-421.5381	431.7584	1819.0142	-445.5367	399.2198	1898.0295	-429.0228	438.4485	1895.2283	-447.3379	373.1304	907.1357	-79.7163	185.7079	929.0543	-165.3534	374.9392	894.5717	-337.859	187.17	922.8361	-267.5499	292.1252	971.0963	-53.6579	290.4428	941.2718	-377.6901	140.6858	1291.348	-336.0031	169.2032	1199.9703	-368.6713	199.9025	1353.9698	-444.5116
4	0.015	197.2158	1368.7985	-236.2655	333.4934	1325.4821	-206.0635	179.6987	1318.5701	-79.3672	209.6802	1322.0878	-38.8694	230.5777	1358.3175	-57.4512	203.987	1342.0693	-360.107	238.8531	1377.0359	-373.8571	226.9613	1397.7213	-326.9327	407.3501	1134.7638	-200.055	176.1109	1190.3667	-241.1755	294.0969	1142.428	-13.3186	233.7251	997.6343	-43.9154	245.0529	1009.0684	21.0116	303.2505	856.3775	48.081	355.2776	794.5992	31.6274	307.4639	786.1799	48.424	379.394	713.1393	46.5149	330.7652	708.3271	59.7811	317.4434	1476.6908	-352.9624	408.8896	1565.5075	-430.6174	363.4254	1590.8203	-438.6928	385.3467	1750.2169	-439.1694	395.5939	1823.3923	-421.5188	431.7045	1819.0243	-445.5063	399.1717	1898.042	-429.0443	438.4	1895.2452	-447.3723	373.0898	907.1576	-79.6697	185.6794	929.0364	-165.3256	374.9215	894.5481	-337.8453	187.1639	922.8465	-267.537	292.1226	971.0699	-53.6934	290.4867	941.2851	-377.7059	140.6822	1291.3331	-336.0716	169.1726	1199.9385	-368.6518	199.8637	1353.9719	-444.4903
5	0.02	197.1497	1368.7894	-236.2541	333.4727	1325.4727	-206.0452	179.6449	1318.5684	-79.3513	209.5027	1322.0161	-38.5379	230.4705	1358.3132	-57.3074	203.9597	1342.0537	-360.0912	238.7977	1377.0061	-373.8372	226.8978	1397.7261	-326.9307	407.2905	1134.7748	-200.035	176.0896	1190.3491	-241.1679	294.0314	1142.4186	-13.2854	233.6607	997.614	-43.8928	244.9823	1009.0341	21.0027	303.2435	856.3348	48.0769	355.1735	794.6065	31.6853	307.454	786.0871	48.4186	379.2911	713.1423	46.5121	330.6761	708.2653	59.8458	317.4083	1476.6813	-352.9623	408.8542	1565.4825	-430.6034	363.3687	1590.7958	-438.6906	385.2806	1750.2209	-439.1956	395.5216	1823.4012	-421.5365	431.6234	1819.0452	-445.5398	399.1293	1898.041	-429.0613	438.302	1895.255	-447.3965	373.1224	907.1284	-79.6966	185.655	929.0272	-165.3339	374.9114	894.5268	-337.8448	187.1377	922.8242	-267.5378	292.0813	971.0232	-53.6186	290.4661	941.2393	-377.6948	140.6457	1291.2949	-335.9762	169.1835	1199.9288	-368.7139	199.8451	1353.9453	-444.4858
6	0.025	197.1269	1368.7802	-236.2389	333.3969	1325.4537	-205.9873	179.6095	1318.5419	-79.3625	209.6612	1321.9861	-38.8462	230.4077	1358.2692	-57.3438	203.9241	1342.0603	-360.0843	238.7613	1377.0166	-373.841	226.8588	1397.733	-326.9135	407.2869	1134.7218	-200.0472	176.0614	1190.3351	-241.1583	293.9879	1142.3846	-13.2468	233.6216	997.6049	-43.8954	244.9451	1009.0525	21.0259	303.1541	856.2952	48.13	355.0736	794.6456	31.7636	307.2716	786.1498	48.5435	379.2651	713.0311	46.5449	330.4848	708.384	59.8632	317.4477	1476.6263	-352.9587	408.8274	1565.4547	-430.5596	363.3349	1590.8204	-438.6999	385.236	1750.215	-439.1966	395.4798	1823.4154	-421.5515	431.6107	1818.9675	-445.5045	399.0583	1898.0275	-429.0824	438.2764	1895.2045	-447.4312	373.0837	907.1006	-79.6753	185.6302	929.0007	-165.3232	374.9099	894.54	-337.8294	187.1302	922.8235	-267.5295	292.0837	970.9302	-53.6766	290.4412	941.2255	-377.6821	140.6295	1291.2605	-335.9763	169.1528	1199.9346	-368.6967	199.7779	1353.9416	-444.47
7	0.03	197.074	1368.7651	-236.218	333.3635	1325.4124	-205.9633	179.5672	1318.5073	-79.3442	209.6492	1321.9407	-38.8172	230.3537	1358.2618	-57.2357	203.8892	1342.0521	-360.0769	238.7255	1377.0032	-373.827	226.8279	1397.718	-326.9239	407.2353	1134.7102	-200.0116	176.0258	1190.3209	-241.1488	293.9924	1142.3221	-13.2829	233.5303	997.5998	-43.8833	244.8856	1009.0342	21.0408	303.1196	856.2833	48.1222	355.0849	794.5312	31.7353	307.2334	786.1379	48.5733	379.196	712.9977	46.5395	330.4674	708.2307	59.9508	317.3595	1476.6613	-352.9452	408.7701	1565.4612	-430.557	363.2672	1590.7867	-438.6839	385.1937	1750.202	-439.2098	395.4192	1823.398	-421.5489	431.5495	1818.9706	-445.5453	399.0388	1898.0231	-429.114	438.2258	1895.1999	-447.4577	373.0829	907.0966	-79.6831	185.6166	929.0045	-165.3245	374.8843	894.5054	-337.8243	187.1173	922.8033	-267.5403	292.0514	970.9462	-53.6281	290.4915	941.121	-377.6428	140.5971	1291.257	-335.944	169.1105	1199.8745	-368.6737	199.7578	1353.9262	-444.4718
8	0.035	197.0245	1368.751	-236.1952	333.3157	1325.3815	-205.9432	179.5052	1318.4993	-79.3456	209.3955	1321.9789	-38.4822	230.3126	1358.2177	-57.1728	203.8476	1342.0535	-360.0613	238.6911	1377.0055	-373.8219	226.7549	1397.7037	-326.9009	407.2267	1134.7405	-200.0187	175.983	1190.3115	-241.1391	293.888	1142.3314	-13.2311	233.4895	997.5703	-43.8594	244.8359	1009.0098	21.076	303.0588	856.241	48.1472	355.004	794.5109	31.7433	307.2714	785.9799	48.4893	379.1039	712.9796	46.5711	330.4175	708.2038	59.9482	317.3354	1476.6216	-352.9197	408.7586	1565.4097	-430.5294	363.2298	1590.7939	-438.6648	385.1455	1750.2068	-439.2251	395.3959	1823.4169	-421.5971	431.4975	1818.9596	-445.5442	398.9817	1898.0198	-429.1504	438.1755	1895.2002	-447.4742	373.0188	907.1071	-79.6717	185.6097	928.9772	-165.328	374.8899	894.4974	-337.8308	187.0837	922.8055	-267.5187	292.0559	970.9185	-53.621	290.5377	941.1143	-377.73	140.5576	1291.2227	-335.971	169.0832	1199.874	-368.619	199.7009	1353.9082	-444.4526
9	0.04	196.9811	1368.731	-236.1724	333.2794	1325.4286	-205.9427	179.4614	1318.4452	-79.3284	209.3344	1321.952	-38.4545	230.2627	1358.136	-57.1777	203.8126	1342.046	-360.0577	238.6471	1376.9846	-373.8103	226.7081	1397.7054	-326.8873	407.1627	1134.7518	-199.986	175.9545	1190.2914	-241.1087	293.815	1142.3158	-13.2002	233.4374	997.5419	-43.8552	244.7621	1008.989	21.0846	302.9895	856.1925	48.1737	354.9254	794.5149	31.7806	307.1739	785.9617	48.5163	379.2072	713.0495	46.7337	330.3824	708.1066	59.9503	317.2811	1476.6483	-352.9494	408.7163	1565.4197	-430.5078	363.1773	1590.7615	-438.6787	385.1168	1750.1965	-439.234	395.3323	1823.4044	-421.615	431.506	1818.8796	-445.5919	398.9382	1898.0199	-429.1529	438.1441	1895.1945	-447.4942	373.0545	907.1115	-79.6402	185.582	928.9683	-165.3113	374.8976	894.5053	-337.8083	187.0834	922.7814	-267.522	292.0247	970.8236	-53.5924	290.4337	941.204	-377.6447	140.5293	1291.2123	-335.9659	169.0665	1199.8615	-368.6092	199.6582	1353.8787	-444.4273
10	0.045	196.9362	1368.7192	-236.164	333.2355	1325.399	-205.9216	179.424	1318.4357	-79.3169	209.4793	1321.9603	-38.7708	230.218	1358.1803	-57.0625	203.7755	1342.0399	-360.0512	238.6196	1376.9921	-373.7997	226.6764	1397.7022	-326.9025	407.1402	1134.7557	-199.9684	175.9143	1190.2814	-241.1002	293.8083	1142.2462	-13.2217	233.3438	997.5189	-43.8337	244.7157	1008.9706	21.0685	302.8583	856.2164	48.2159	354.8795	794.4376	31.8152	307.0908	785.9809	48.6197	379.1461	713.0224	46.7816	330.3128	708.1216	59.9725	317.2953	1476.5599	-352.924	408.6768	1565.3682	-430.5027	363.0852	1590.7607	-438.7078	385.0798	1750.1986	-439.2495	395.3052	1823.3859	-421.6387	431.4575	1818.8688	-445.6183	398.9126	1898.0181	-429.1811	438.105	1895.1903	-447.5181	373.0548	907.1117	-79.653	185.5603	928.9673	-165.2995	374.8358	894.4813	-337.7924	187.0745	922.7717	-267.5173	292.0251	970.8406	-53.6256	290.4242	941.1869	-377.6718	140.4973	1291.1544	-335.9242	169.0026	1199.7942	-368.583	199.6185	1353.8645	-444.4388
11	0.05	196.8746	1368.702	-236.1255	333.1979	1325.382	-205.9019	179.3707	1318.4055	-79.284	209.5093	1321.8174	-38.7607	230.2313	1358.1399	-57.1912	203.7327	1342.0199	-360.0335	238.5917	1376.9852	-373.7917	226.6257	1397.707	-326.8774	407.1155	1134.7351	-199.9479	175.8938	1190.254	-241.0935	293.7429	1142.2307	-13.1818	233.3019	997.4838	-43.8092	244.6365	1008.9401	21.0981	302.8913	856.1116	48.192	354.8163	794.3724	31.8694	306.979	786.0099	48.6598	379.086	712.9546	46.7698	330.1732	708.1408	59.9739	317.1746	1476.6334	-352.9125	408.6547	1565.3654	-430.4903	363.0555	1590.7576	-438.6745	385.0423	1750.1774	-439.2901	395.2497	1823.376	-421.654	431.4534	1818.8168	-445.6156	398.864	1898.0216	-429.2193	438.0861	1895.1818	-447.5586	373.0491	907.1047	-79.6605	185.8143	928.8501	-165.33	374.8353	894.4481	-337.7746	187.0669	922.7704	-267.5242	291.7185	970.6658	-53.5399	290.4558	941.1049	-377.6294	140.4769	1291.1194	-335.9245	169.0069	1199.806	-368.5756	199.5966	1353.7971	-444.428
